<?xml version="1.0" standalone="no"?>
<!DOCTYPE svg PUBLIC "-//W3C//DTD SVG 1.1//EN" "http://www.w3.org/Graphics/SVG/1.1/DTD/svg11.dtd" >
<svg>
<metadata>
Created by FontForge 20090914 at Wed Oct  9 06:29:50 2019
 By www-data
Copyright  2010 by Ryoichi Tsunekawa. All rights reserved.
</metadata>
<defs>
<font id="BebasNeueRegular" horiz-adv-x="792" >
  <font-face 
    font-family="Bebas Neue Regular"
    font-weight="400"
    font-stretch="normal"
    units-per-em="2048"
    panose-1="0 0 5 0 0 0 0 0 0 0"
    ascent="1536"
    descent="-512"
    x-height="1434"
    cap-height="1434"
    bbox="0 -305 1679 1817"
    underline-thickness="102"
    underline-position="-123"
    unicode-range="U+000D-U+25FC"
  />
<missing-glyph horiz-adv-x="748" 
d="M68 0v1365h544v-1365h-544zM136 68h408v1229h-408v-1229z" />
    <glyph glyph-name=".notdef" horiz-adv-x="748" 
d="M68 0v1365h544v-1365h-544zM136 68h408v1229h-408v-1229z" />
    <glyph glyph-name="glyph1" horiz-adv-x="2048" 
 />
    <glyph glyph-name="glyph1" horiz-adv-x="2048" 
 />
    <glyph glyph-name="uni000D" unicode="&#xd;" horiz-adv-x="2048" 
 />
    <glyph glyph-name="space" unicode=" " horiz-adv-x="317" 
 />
    <glyph glyph-name="exclam" unicode="!" horiz-adv-x="323" 
d="M82 760v674h160v-674l-21 -443h-119zM84 0v199h154v-199h-154z" />
    <glyph glyph-name="quotedbl" unicode="&#x22;" horiz-adv-x="542" 
d="M82 1434h154l-23 -387h-111zM307 1434h154l-23 -387h-110z" />
    <glyph glyph-name="numbersign" unicode="#" horiz-adv-x="843" 
d="M47 432l12 115h117l45 420h-121l13 114h118l37 353h131l-37 -353h189l37 353h131l-37 -353h115l-13 -114h-114l-43 -420h114l-12 -115h-115l-45 -432h-131l45 432h-186l-47 -432h-131l47 432h-119zM307 547h189l43 420h-187z" />
    <glyph glyph-name="dollar" unicode="$" 
d="M74 358l0.000976562 87.999h149v-98c0 -135.333 56 -203 168 -203s168 67.667 168 203c0 42.667 -8.83301 82.167 -26.5 118.5s-40.5 68 -68.5 95s-59.167 53.333 -93.5 79l-102.5 80c-34 27.667 -65 57.334 -93 89.001s-50.833 70.167 -68.5 115.5
s-26.5 95.333 -26.5 150c0 100.667 20.833 181.167 62.5 241.5s104.834 97.166 189.501 110.499v115h131v-115c84.667 -12 148.167 -48.833 190.5 -110.5s63.5 -142.167 63.5 -241.5v-39h-150v49c0 136.667 -55.333 205 -166 205c-108.667 0 -163 -68.333 -163 -205
c0 -43.333 8.83301 -83.333 26.5 -120s40.667 -68.334 69 -95.001s59.5 -52.834 93.5 -78.501l102.5 -80c34.333 -27.667 65.666 -57.167 93.999 -88.5s51.333 -69.666 69 -114.999s26.5 -95.333 26.5 -150c0 -99.333 -21.5 -180.166 -64.5 -242.499
s-106.833 -99.5 -191.5 -111.5v-108h-131v108c-86.667 12 -151.334 48.833 -194.001 110.5s-64 142.834 -64 243.501z" />
    <glyph glyph-name="percent" unicode="%" horiz-adv-x="1261" 
d="M74 758v452c0 71.333 17.333 127.833 52 169.5s85.667 62.5 153 62.5s118.166 -20.833 152.499 -62.5s51.5 -98.167 51.5 -169.5v-452c0 -72 -17.167 -128.667 -51.5 -170s-85.166 -62 -152.499 -62s-118.333 20.667 -153 62s-52 98 -52 170zM176 750
c0 -86 34.333 -129 103 -129c68 0 102 43 102 129v467c0 87.333 -34 131 -102 131c-68.667 0 -103 -43.667 -103 -131v-467zM295 0l565 1434h96l-565 -1434h-96zM778 225v451c0 70.667 17.333 126.5 52 167.5s85.667 61.5 153 61.5c68 0 119.167 -20.333 153.5 -61
s51.5 -96.667 51.5 -168v-451c0 -72 -17 -128.5 -51 -169.5s-85.333 -61.5 -154 -61.5c-67.333 0 -118.333 20.5 -153 61.5s-52 97.5 -52 169.5zM881 217c0 -87.333 34 -131 102 -131s102 43.667 102 131v465c0 86 -34 129 -102 129s-102 -43 -102 -129v-465z" />
    <glyph glyph-name="ampersand" unicode="&#x26;" horiz-adv-x="835" 
d="M84 315v140.002c0 73.333 14 136 42 188s70.667 89 128 111c-56.667 20 -99.167 55.333 -127.5 106s-42.5 113 -42.5 187v32c0 114.667 28.333 202.5 85 263.5s141 91.5 253 91.5h231v-146h-227c-122.667 0 -184 -67.667 -184 -203v-71
c0 -60.667 14.5 -107.834 43.5 -141.501s69.833 -51.5 122.5 -53.5h161v160h158v-160h70v-143h-70v-494c0 -42.667 1.83301 -77.334 5.5 -104.001s12.167 -52.667 25.5 -78h-162c-16.667 36 -25.667 77.667 -27 125c-41.333 -92.667 -116.333 -139 -225 -139
c-86.667 0 -151.667 28.833 -195 86.5s-65 138.5 -65 242.5zM242 328.002c0 -131.333 55.333 -197 166 -197c47.333 0 85.5 13.833 114.5 41.5s44.5 68.5 46.5 122.5v381h-149c-118.667 -4 -178 -76.333 -178 -217v-131z" />
    <glyph glyph-name="quotesingle" unicode="'" horiz-adv-x="309" 
d="M78 1434h153l-22 -387h-111z" />
    <glyph glyph-name="parenleft" unicode="(" horiz-adv-x="493" 
d="M92 315l-0.000976562 803c0 110 22.333 190.167 67 240.5s120.667 75.5 228 75.5h57v-131h-47c-54 0 -92 -14.667 -114 -44s-33 -76.333 -33 -141v-803c0 -64.667 10.833 -111.5 32.5 -140.5s59.834 -43.5 114.501 -43.5h47v-131h-57c-107.333 0 -183.333 25 -228 75
s-67 130 -67 240z" />
    <glyph glyph-name="parenright" unicode=")" horiz-adv-x="493" 
d="M49 0v131h47c54.667 0 93 14.5 115 43.5s33 75.833 33 140.5v803c0 64 -11.167 110.833 -33.5 140.5s-60.5 44.5 -114.5 44.5h-47v131h57c107.333 0 183.333 -25.167 228 -75.5s67 -130.5 67 -240.5v-803c0 -110 -22.333 -190 -67 -240s-120.667 -75 -228 -75h-57z" />
    <glyph glyph-name="asterisk" unicode="*" horiz-adv-x="808" 
d="M37 1110l39 125l299 -131l-37 323h131l-35 -323l299 129l39 -125l-319 -64l217 -239l-105 -78l-162 285l-159 -285l-105 78l215 239z" />
    <glyph glyph-name="plus" unicode="+" horiz-adv-x="802" 
d="M61 659v115h283v285h115v-285h282v-115h-282v-288h-115v288h-283z" />
    <glyph glyph-name="comma" unicode="," horiz-adv-x="327" 
d="M92 0v199h154v-185l-80 -194h-66l52 180h-60z" />
    <glyph glyph-name="hyphen" unicode="-" horiz-adv-x="542" 
d="M76 645v143h391v-143h-391z" />
    <glyph glyph-name="period" unicode="." horiz-adv-x="317" 
d="M82 0v199h154v-199h-154z" />
    <glyph glyph-name="slash" unicode="/" horiz-adv-x="770" 
d="M33 0l565 1434h139l-565 -1434h-139z" />
    <glyph glyph-name="zero" unicode="0" horiz-adv-x="796" 
d="M70 348l0.00195312 739c0 112.667 27.667 201 83 265s136.666 96 243.999 96c108 0 190 -32 246 -96s84 -152.333 84 -265v-739c0 -112.667 -28 -201.167 -84 -265.5s-138 -96.5 -246 -96.5c-106.667 0 -187.834 32.167 -243.501 96.5s-83.5 152.833 -83.5 265.5z
M227.002 338c0 -66 14.167 -117 42.5 -153s70.833 -54 127.5 -54c57.333 0 100 18 128 54s42 87 42 153v758c0 139.333 -56.667 209 -170 209c-56.667 0 -99.167 -18.167 -127.5 -54.5s-42.5 -87.833 -42.5 -154.5v-758z" />
    <glyph glyph-name="one" unicode="1" horiz-adv-x="692" 
d="M176 1112v131.001c37.333 1.33301 70 7.16602 98 17.499s51.333 24.833 70 43.5s33.667 38 45 58s22.333 44 33 72h110v-1434h-157v1174c-60 -37.333 -126.333 -58 -199 -62z" />
    <glyph glyph-name="two" unicode="2" 
d="M82 0l-0.000976562 122.999c0 62.667 8.83301 121.667 26.5 177s40.834 103.833 69.501 145.5s60.167 81.834 94.5 120.501l103.5 114c34.667 37.333 66.334 75.166 95.001 113.499s51.834 82 69.501 131s26.5 100.5 26.5 154.5c0 75.333 -13.5 131.833 -40.5 169.5
s-69.5 56.5 -127.5 56.5c-56.667 0 -98.834 -18.667 -126.501 -56s-41.5 -89 -41.5 -155v-127h-149v116c0 113.333 26.667 202.5 80 267.5s133.666 97.5 240.999 97.5c108 0 189 -32.167 243 -96.5s81 -153.166 81 -266.499c0 -58.667 -9 -115 -27 -169
s-41.167 -102.167 -69.5 -144.5s-59.833 -83.666 -94.5 -123.999l-103.5 -117c-34.333 -37.667 -65.833 -74.834 -94.5 -111.501s-52.167 -76.5 -70.5 -119.5s-27.5 -86.833 -27.5 -131.5v-23h471v-145h-629z" />
    <glyph glyph-name="three" unicode="3" 
d="M74 348v98h149v-108c0 -66 14 -117 42 -153s70 -54 126 -54c112 0 168 73.667 168 221v111c0 70 -14.833 122.5 -44.5 157.5s-74.834 53.5 -135.501 55.5h-86v143h94c54 2 96.167 20 126.5 54s45.5 81.667 45.5 143v65c0 149.333 -56 224 -168 224
c-56 0 -98 -18.333 -126 -55s-42 -88 -42 -154v-74h-149v65c0 112.667 26.833 201 80.5 265s133.834 96 240.501 96c107.333 0 188.166 -32 242.499 -96s81.5 -152.333 81.5 -265v-36c0 -74 -14.667 -136.333 -44 -187s-72.666 -86.667 -129.999 -108
c116 -43.333 174 -142.333 174 -297v-111c0 -113.333 -27.167 -202 -81.5 -266s-135.166 -96 -242.499 -96c-106.667 0 -186.834 32 -240.501 96s-80.5 152.667 -80.5 266z" />
    <glyph glyph-name="four" unicode="4" horiz-adv-x="819" 
d="M45 289v145l444 1000h175v-1000h114v-145h-114v-289h-156v289h-463zM193 434h315v701z" />
    <glyph glyph-name="five" unicode="5" 
d="M76 348l0.00195312 96h149v-106c0 -66 14 -117 42 -153s70 -54 126 -54s98 18 126 54s42 87 42 153v278c0 66 -14 117 -42 153s-70 54 -126 54c-94 0 -148 -51 -162 -153v-33h-149l39 797h565v-144h-422l-22 -440c46 79.333 117 119 213 119c89.333 0 156 -30 200 -90
s66 -143.333 66 -250v-281c0 -112.667 -27.333 -201.167 -82 -265.5s-135.334 -96.5 -242.001 -96.5s-186.834 32 -240.501 96s-80.5 152.667 -80.5 266z" />
    <glyph glyph-name="six" unicode="6" horiz-adv-x="796" 
d="M72 348v731.001c0 117.333 27.167 208.166 81.5 272.499s136.833 96.5 247.5 96.5c108 0 189 -31.5 243 -94.5s81 -150.833 81 -263.5v-27h-150v37c0 136.667 -56.333 205 -169 205c-60 0 -104.167 -19.167 -132.5 -57.5s-42.5 -96.5 -42.5 -174.5v-321
c40.667 102 118 153 232 153c89.333 0 156 -29.833 200 -89.5s66 -143.167 66 -250.5v-217c0 -112.667 -27.833 -201.167 -83.5 -265.5s-137.167 -96.5 -244.5 -96.5c-108 0 -189.833 32.167 -245.5 96.5s-83.5 152.833 -83.5 265.5zM231 338.001c0 -66 14 -117 42 -153
s70.667 -54 128 -54c56.667 0 99.167 18 127.5 54s42.5 87 42.5 153v215c0 66 -14.167 117 -42.5 153s-70.833 54 -127.5 54c-57.333 0 -100 -18 -128 -54s-42 -87 -42 -153v-215z" />
    <glyph glyph-name="seven" unicode="7" 
d="M72 1290v144h649v-140l-369 -1294h-159l366 1290h-487z" />
    <glyph glyph-name="eight" unicode="8" horiz-adv-x="802" 
d="M63 344v106.999c0 157.333 55.333 258.333 166 303c-110.667 42.667 -166 141 -166 295v45c0 112 29 199 87 261s141.667 93 251 93s193 -31 251 -93s87 -149 87 -261v-45c0 -155.333 -54.667 -253.666 -164 -294.999c109.333 -43.333 164 -144.333 164 -303v-107
c0 -112.667 -28.833 -200.5 -86.5 -263.5s-141.5 -94.5 -251.5 -94.5s-193.833 31.5 -251.5 94.5s-86.5 150.833 -86.5 263.5zM221 347.999c0 -144.667 60 -217 180 -217c118.667 0 179 72.333 181 217v121c0 138 -60.333 207 -181 207c-120 0 -180 -69 -180 -207v-121z
M221 1020c0 -134 60 -201 180 -201c120.667 0 181 67 181 201v70c0 72 -15.667 125.833 -47 161.5s-76 53.5 -134 53.5s-102.5 -17.833 -133.5 -53.5s-46.5 -89.5 -46.5 -161.5v-70z" />
    <glyph glyph-name="nine" unicode="9" horiz-adv-x="796" 
d="M68 868v218.999c0 112.667 27.5 201 82.5 265s136.5 96 244.5 96s190 -32 246 -96s84 -152.333 84 -265v-731c0 -117.333 -27.5 -208.333 -82.5 -273s-138.167 -97 -249.5 -97c-106.667 0 -187.167 31.833 -241.5 95.5s-81.5 151.834 -81.5 264.501v27h149v-37
c0 -66 14.167 -116.667 42.5 -152s70.833 -53 127.5 -53c60.667 0 105.167 18.833 133.5 56.5s42.5 95.167 42.5 172.5v322c-40 -101.333 -117 -152 -231 -152c-89.333 0 -156 29.667 -200 89s-66 142.333 -66 249zM225 880.999c0 -66 14.167 -116.999 42.5 -152.999
s70.833 -54 127.5 -54c57.333 0 100 18 128 54s42 87 42 153v215c0 138 -56.667 207 -170 207c-56.667 0 -99.167 -17.833 -127.5 -53.5s-42.5 -86.834 -42.5 -153.501v-215z" />
    <glyph glyph-name="colon" unicode=":" horiz-adv-x="317" 
d="M82 0v199h154v-199h-154zM82 780v199h154v-199h-154z" />
    <glyph glyph-name="semicolon" unicode=";" horiz-adv-x="327" 
d="M92 0v199h154v-185l-80 -194h-66l52 180h-60zM92 780v199h154v-199h-154z" />
    <glyph glyph-name="less" unicode="&#x3c;" horiz-adv-x="784" 
d="M68 659v115l634 260v-116l-485 -201l485 -201v-117z" />
    <glyph glyph-name="equal" unicode="=" horiz-adv-x="716" 
d="M76 528v115h565v-115h-565zM76 819v115h565v-115h-565z" />
    <glyph glyph-name="greater" unicode="&#x3e;" horiz-adv-x="784" 
d="M82 399v117l485 201l-485 201v116l635 -260v-115z" />
    <glyph glyph-name="question" unicode="?" horiz-adv-x="739" 
d="M55 967l0.00390625 116.001c0 112.667 26.5 201.667 79.5 267s132.5 98 238.5 98c107.333 0 187.333 -32.167 240 -96.5s79 -153.166 79 -266.499c0 -64 -9.83301 -122.833 -29.5 -176.5s-43.334 -99.667 -71.001 -138l-83 -111
c-27.667 -35.667 -51.334 -75.834 -71.001 -120.501s-29.5 -92 -29.5 -142c0 -24 3.33301 -50 10 -78h-144c-6.66699 28 -10 55.333 -10 82c0 57.333 9.16699 110.166 27.5 158.499s40.666 90.5 66.999 126.5l79 109c26.333 36.667 48.666 80.5 66.999 131.5
s27.5 106.833 27.5 167.5c0 140.667 -54.333 211 -163 211c-109.333 0 -164 -70.333 -164 -211v-127h-150zM268.004 0.000976562v199h152v-199h-152z" />
    <glyph glyph-name="at" unicode="@" horiz-adv-x="1411" 
d="M59 590c0 98.667 9.33496 192.667 28.002 282s47.834 172.833 87.501 250.5s88.167 144.667 145.5 201s127.166 100.666 209.499 132.999s172.833 48.5 271.5 48.5c80.667 0 152.667 -9.66699 216 -29s116.333 -46.333 159 -81s77.834 -76.834 105.501 -126.501
s47.667 -103.667 60 -162s18.5 -122.166 18.5 -191.499c0 -98 -10.667 -188 -32 -270s-49.5 -149.5 -84.5 -202.5s-74.833 -94 -119.5 -123s-91 -43.5 -139 -43.5c-49.333 0 -88 12.167 -116 36.5s-43.333 58.833 -46 103.5c-43.333 -95.333 -113.666 -142 -210.999 -140
c-74 0.666992 -126.167 29.167 -156.5 85.5s-40.833 132.5 -31.5 228.5l22 205c9.33301 95.333 35.5 169.5 78.5 222.5s101.5 78.5 175.5 76.5c91.333 0 150.333 -45.333 177 -136l14 127h139l-61 -587c-3.33301 -26 -0.333008 -47.167 9 -63.5s26 -24.5 50 -24.5
c37.333 0 70.333 16.333 99 49s50.667 75 66 127s26.666 105.667 33.999 161s10.666 110 9.99902 164c0 148 -36.167 263.167 -108.5 345.5s-182.833 123.5 -331.5 123.5c-80.667 0 -153.834 -13 -219.501 -39s-122 -62.5 -169 -109.5s-86.333 -103.833 -118 -170.5
s-55.167 -140 -70.5 -220s-23 -166.333 -23 -259c0 -181.333 42.833 -321.333 128.5 -420s215.5 -148 389.5 -148c158 0 292.333 43 403 129l-12 -141c-107.333 -74 -240.333 -111 -399 -111c-110.667 0 -207.667 16.5 -291 49.5s-150.833 80.333 -202.5 142
s-90.334 134.834 -116.001 219.501s-38.5 180.667 -38.5 288zM565.002 596c-6 -55.333 0.5 -99.665 19.5 -132.998s51.5 -50.333 97.5 -51s82.333 15.166 109 47.499s43 77.166 49 134.499l20 197c5.33301 49.333 -2.16699 88.833 -22.5 118.5s-52.5 44.5 -96.5 44.5
c-46 0.666992 -82.167 -14 -108.5 -44s-42.5 -73.333 -48.5 -130z" />
    <glyph glyph-name="A" unicode="A" horiz-adv-x="864" 
d="M41 0l274 1434h232l274 -1434h-159l-56 289h-362l-56 -289h-147zM264 426h320l-162 827z" />
    <glyph glyph-name="B" unicode="B" horiz-adv-x="802" 
d="M82 0l0.00195312 1434h321c109.333 0 188.666 -26.167 237.999 -78.5s74 -132.166 74 -239.499v-67c0 -78.667 -12.833 -141.167 -38.5 -187.5s-68.834 -78.833 -129.501 -97.5c128 -36 192 -138.333 192 -307v-121c0 -109.333 -27 -192.666 -81 -249.999
s-136 -86 -246 -86h-330zM242.002 144.998l170.001 -0.000976562c58.667 0 101.667 15.833 129 47.5s41 80.834 41 147.501v127c0 78 -15.833 133 -47.5 165s-82.834 48 -153.501 48h-139v-535zM242.003 824.997h122.999c66.667 0 115.334 13.833 146.001 41.5
s46 77.5 46 149.5v84c0 64.667 -12.167 112.167 -36.5 142.5s-64.833 45.5 -121.5 45.5h-157v-463z" />
    <glyph glyph-name="C" unicode="C" horiz-adv-x="778" 
d="M70 346v741c0 112 26.833 200.167 80.5 264.5s133.834 96.5 240.501 96.5c107.333 0 188.166 -32.167 242.499 -96.5s81.5 -152.5 81.5 -264.5v-129h-152v138c0 138 -56 207 -168 207c-56 0 -98 -18 -126 -54s-42 -87 -42 -153v-758c0 -66 14 -117 42 -153
s70 -54 126 -54c112 0 168 69 168 207v186h152v-178c0 -112 -27.167 -200 -81.5 -264s-135.166 -96 -242.499 -96c-106.667 0 -186.834 32 -240.501 96s-80.5 152 -80.5 264z" />
    <glyph glyph-name="D" unicode="D" horiz-adv-x="811" 
d="M82 0v1434h336c108.667 0 190 -31.167 244 -93.5s81 -150.166 81 -263.499v-723c0 -112.667 -27 -199.834 -81 -261.501s-135.333 -92.5 -244 -92.5h-336zM242 145h174c113.333 0 170 67.667 170 203v737c0 135.333 -57.333 203 -172 203h-172v-1143z" />
    <glyph glyph-name="E" unicode="E" horiz-adv-x="737" 
d="M82 0v1434h590v-146h-430v-489h350v-144h-350v-510h430v-145h-590z" />
    <glyph glyph-name="F" unicode="F" horiz-adv-x="696" 
d="M82 0v1434h569v-146h-409v-522h329v-145h-329v-621h-160z" />
    <glyph glyph-name="G" unicode="G" horiz-adv-x="784" 
d="M70 346v741c0 112 26.833 200.167 80.5 264.5s133.834 96.5 240.501 96.5c107.333 0 188.166 -32.167 242.499 -96.5s81.5 -152.5 81.5 -264.5v-122h-152v131c0 138 -56 207 -168 207c-56 0 -98 -18 -126 -54s-42 -87 -42 -153v-758c0 -66 14 -117 42 -153
s70 -54 126 -54c112 0 168 69 168 207v287h-147v143h299v-422c0 -112 -27.167 -200 -81.5 -264s-135.166 -96 -242.499 -96c-106.667 0 -186.834 32 -240.501 96s-80.5 152 -80.5 264z" />
    <glyph glyph-name="H" unicode="H" horiz-adv-x="835" 
d="M82 0v1434h160v-646h352v646h160v-1434h-160v645h-352v-645h-160z" />
    <glyph glyph-name="I" unicode="I" horiz-adv-x="323" 
d="M82 0v1434h160v-1434h-160z" />
    <glyph glyph-name="J" unicode="J" horiz-adv-x="522" 
d="M41 0l0.000976562 145.001c18 -1.33301 44.667 -2 80 -2c55.333 3.33301 97.166 20.333 125.499 51s42.5 80.667 42.5 150v1090h157v-1080c0 -232.667 -101.667 -351.334 -305 -356.001c-54.667 0 -88 0.666992 -100 2z" />
    <glyph glyph-name="K" unicode="K" horiz-adv-x="837" 
d="M82 0v1434h160v-693l381 693h161l-362 -654l375 -780h-164l-307 623l-84 -142v-481h-160z" />
    <glyph glyph-name="L" unicode="L" horiz-adv-x="690" 
d="M82 0v1434h160v-1289h409v-145h-569z" />
    <glyph glyph-name="M" unicode="M" horiz-adv-x="1071" 
d="M80 0v1434h223l236 -1145l227 1145h223v-1434h-151v1153l-228 -1151h-153l-238 1141v-1143h-139z" />
    <glyph glyph-name="N" unicode="N" horiz-adv-x="837" 
d="M80 0v1434h203l331 -1037v1037h142v-1434h-166l-367 1159v-1159h-143z" />
    <glyph glyph-name="O" unicode="O" horiz-adv-x="796" 
d="M70 346l0.00195312 741c0 112.667 27.667 201 83 265s136.666 96 243.999 96c108 0 190 -32 246 -96s84 -152.333 84 -265v-741c0 -111.333 -28 -199.166 -84 -263.499s-138 -96.5 -246 -96.5c-106.667 0 -187.834 32.167 -243.501 96.5s-83.5 152.166 -83.5 263.499z
M227.002 338c0 -66.667 14.167 -117.833 42.5 -153.5s70.833 -53.5 127.5 -53.5c113.333 0 170 69 170 207v758c0 66 -14 117 -42 153s-70.667 54 -128 54c-56.667 0 -99.167 -18 -127.5 -54s-42.5 -87 -42.5 -153v-758z" />
    <glyph glyph-name="P" unicode="P" horiz-adv-x="765" 
d="M82 0v1434h313c109.333 0 190.333 -30.5 243 -91.5s79 -147.5 79 -259.5v-172c0 -230.667 -111.333 -346 -334 -346h-141v-565h-160zM242 709l141 0.000976562c60.667 0 105.167 15.167 133.5 45.5s42.5 79.166 42.5 146.499v191c0 66.667 -13 116 -39 148
s-67.667 48 -125 48h-153v-579z" />
    <glyph glyph-name="Q" unicode="Q" horiz-adv-x="823" 
d="M70 346l0.00195312 741.002c0 112.667 27.667 201 83 265s136.666 96 243.999 96c108 0 190 -32 246 -96s84 -152.333 84 -265v-741c0 -92 -18.333 -166.333 -55 -223c8 -16.667 18.833 -28.334 32.5 -35.001s32.167 -10 55.5 -10h20v-141h-26c-88 0 -149 30.667 -183 92
c-48 -28.667 -106 -43 -174 -43c-106.667 0 -187.834 32.167 -243.501 96.5s-83.5 152.166 -83.5 263.499zM227.002 338.002c0 -66.667 14.167 -117.833 42.5 -153.5s70.833 -53.5 127.5 -53.5c113.333 0 170 69 170 207v758c0 66 -14 117 -42 153s-70.667 54 -128 54
c-56.667 0 -99.167 -18 -127.5 -54s-42.5 -87 -42.5 -153v-758z" />
    <glyph glyph-name="R" unicode="R" horiz-adv-x="806" 
d="M82 0l0.000976562 1434h319c110.667 0 191.667 -27.5 243 -82.5s77 -136.833 77 -245.5v-117c0 -159.333 -59.333 -257.666 -178 -294.999c63.333 -18.667 109.166 -53.167 137.499 -103.5s42.5 -115.5 42.5 -195.5v-223c0 -79.333 9.66699 -136.666 29 -171.999h-162
c-18 41.333 -27 99.333 -27 174v225c0 78 -17.333 133 -52 165s-87 48 -157 48h-112v-612h-160zM242.001 757.998h118c68 0 118.833 14.167 152.5 42.5s50.5 79.5 50.5 153.5v138c0 66 -13.167 115.167 -39.5 147.5s-68.5 48.5 -126.5 48.5h-155v-530z" />
    <glyph glyph-name="S" unicode="S" horiz-adv-x="761" 
d="M59 344l0.00292969 82.001h150v-90c0 -136.667 56 -205 168 -205s168 68.333 168 205c0 42.667 -8.83301 82.667 -26.5 120s-40.5 70.333 -68.5 99s-59.167 56.834 -93.5 84.501l-102.5 86c-34 29.667 -65 61 -93 94s-50.833 72.667 -68.5 119s-26.5 96.833 -26.5 151.5
c0 113.333 26.5 201.333 79.5 264s132.167 94 237.5 94c106 0 185.667 -31.667 239 -95s80 -151 80 -263v-39h-151v47c0 136.667 -54.667 205 -164 205s-164 -67.667 -164 -203c0 -43.333 8.83301 -83.833 26.5 -121.5s40.667 -70.834 69 -99.501
s59.666 -56.834 93.999 -84.501l103 -86c34.333 -29.667 65.666 -61 93.999 -94s51.333 -72.667 69 -119s26.5 -96.833 26.5 -151.5c0 -111.333 -27.333 -198.833 -82 -262.5s-135.334 -95.5 -242.001 -95.5s-187 31.667 -241 95s-81 151 -81 263z" />
    <glyph glyph-name="T" unicode="T" horiz-adv-x="743" 
d="M27 1288v146h688v-146h-264v-1288h-160v1288h-264z" />
    <glyph glyph-name="U" unicode="U" 
d="M76 346v1088h157v-1096c0 -138 56 -207 168 -207c110.667 0 166 69 166 207v1096h150v-1088c0 -112.667 -26.833 -201.167 -80.5 -265.5s-134.167 -96.5 -241.5 -96.5c-106 0 -185.667 32.167 -239 96.5s-80 152.833 -80 265.5z" />
    <glyph glyph-name="V" unicode="V" horiz-adv-x="856" 
d="M41 1434h162l233 -1248l232 1248h147l-268 -1434h-236z" />
    <glyph glyph-name="W" unicode="W" horiz-adv-x="1193" 
d="M47 1434h156l168 -1221l159 1219h158l158 -1221l162 1223h139l-195 -1434h-211l-137 973l-141 -973h-219z" />
    <glyph glyph-name="X" unicode="X" horiz-adv-x="890" 
d="M47 0l289 739l-270 695h165l222 -574l223 574h149l-268 -695l287 -739h-168l-238 618l-239 -618h-152z" />
    <glyph glyph-name="Y" unicode="Y" horiz-adv-x="831" 
d="M33 1434h166l223 -705l225 705h152l-305 -920v-514h-158v514z" />
    <glyph glyph-name="Z" unicode="Z" horiz-adv-x="776" 
d="M59 0v143l492 1145h-469v146h633v-144l-494 -1145h490v-145h-652z" />
    <glyph glyph-name="bracketleft" unicode="[" horiz-adv-x="495" 
d="M92 0v1434h346v-131h-188v-1172h188v-131h-346z" />
    <glyph glyph-name="backslash" unicode="\" horiz-adv-x="770" 
d="M33 1434h139l565 -1434h-139z" />
    <glyph glyph-name="bracketright" unicode="]" horiz-adv-x="495" 
d="M57 0v131h187v1172h-187v131h346v-1434h-346z" />
    <glyph glyph-name="asciicircum" unicode="^" horiz-adv-x="825" 
d="M55 799l299 635h117l299 -635h-129l-229 489l-228 -489h-129z" />
    <glyph glyph-name="underscore" unicode="_" horiz-adv-x="1038" 
d="M27 -20h977v-117h-977v117z" />
    <glyph glyph-name="grave" unicode="`" horiz-adv-x="456" 
d="M88 1737h166l141 -211h-116z" />
    <glyph glyph-name="a" unicode="a" horiz-adv-x="864" 
d="M41 0l274 1434h232l274 -1434h-159l-56 289h-362l-56 -289h-147zM264 426h320l-162 827z" />
    <glyph glyph-name="b" unicode="b" horiz-adv-x="802" 
d="M82 0l0.00195312 1434h321c109.333 0 188.666 -26.167 237.999 -78.5s74 -132.166 74 -239.499v-67c0 -78.667 -12.833 -141.167 -38.5 -187.5s-68.834 -78.833 -129.501 -97.5c128 -36 192 -138.333 192 -307v-121c0 -109.333 -27 -192.666 -81 -249.999
s-136 -86 -246 -86h-330zM242.002 144.998l170.001 -0.000976562c58.667 0 101.667 15.833 129 47.5s41 80.834 41 147.501v127c0 78 -15.833 133 -47.5 165s-82.834 48 -153.501 48h-139v-535zM242.003 824.997h122.999c66.667 0 115.334 13.833 146.001 41.5
s46 77.5 46 149.5v84c0 64.667 -12.167 112.167 -36.5 142.5s-64.833 45.5 -121.5 45.5h-157v-463z" />
    <glyph glyph-name="c" unicode="c" horiz-adv-x="778" 
d="M70 346v741c0 112 26.833 200.167 80.5 264.5s133.834 96.5 240.501 96.5c107.333 0 188.166 -32.167 242.499 -96.5s81.5 -152.5 81.5 -264.5v-129h-152v138c0 138 -56 207 -168 207c-56 0 -98 -18 -126 -54s-42 -87 -42 -153v-758c0 -66 14 -117 42 -153
s70 -54 126 -54c112 0 168 69 168 207v186h152v-178c0 -112 -27.167 -200 -81.5 -264s-135.166 -96 -242.499 -96c-106.667 0 -186.834 32 -240.501 96s-80.5 152 -80.5 264z" />
    <glyph glyph-name="d" unicode="d" horiz-adv-x="811" 
d="M82 0v1434h336c108.667 0 190 -31.167 244 -93.5s81 -150.166 81 -263.499v-723c0 -112.667 -27 -199.834 -81 -261.501s-135.333 -92.5 -244 -92.5h-336zM242 145h174c113.333 0 170 67.667 170 203v737c0 135.333 -57.333 203 -172 203h-172v-1143z" />
    <glyph glyph-name="e" unicode="e" horiz-adv-x="737" 
d="M82 0v1434h590v-146h-430v-489h350v-144h-350v-510h430v-145h-590z" />
    <glyph glyph-name="f" unicode="f" horiz-adv-x="696" 
d="M82 0v1434h569v-146h-409v-522h329v-145h-329v-621h-160z" />
    <glyph glyph-name="g" unicode="g" horiz-adv-x="784" 
d="M70 346v741c0 112 26.833 200.167 80.5 264.5s133.834 96.5 240.501 96.5c107.333 0 188.166 -32.167 242.499 -96.5s81.5 -152.5 81.5 -264.5v-122h-152v131c0 138 -56 207 -168 207c-56 0 -98 -18 -126 -54s-42 -87 -42 -153v-758c0 -66 14 -117 42 -153
s70 -54 126 -54c112 0 168 69 168 207v287h-147v143h299v-422c0 -112 -27.167 -200 -81.5 -264s-135.166 -96 -242.499 -96c-106.667 0 -186.834 32 -240.501 96s-80.5 152 -80.5 264z" />
    <glyph glyph-name="h" unicode="h" horiz-adv-x="835" 
d="M82 0v1434h160v-646h352v646h160v-1434h-160v645h-352v-645h-160z" />
    <glyph glyph-name="i" unicode="i" horiz-adv-x="323" 
d="M82 0v1434h160v-1434h-160z" />
    <glyph glyph-name="j" unicode="j" horiz-adv-x="522" 
d="M41 0l0.000976562 145.001c18 -1.33301 44.667 -2 80 -2c55.333 3.33301 97.166 20.333 125.499 51s42.5 80.667 42.5 150v1090h157v-1080c0 -232.667 -101.667 -351.334 -305 -356.001c-54.667 0 -88 0.666992 -100 2z" />
    <glyph glyph-name="k" unicode="k" horiz-adv-x="837" 
d="M82 0v1434h160v-693l381 693h161l-362 -654l375 -780h-164l-307 623l-84 -142v-481h-160z" />
    <glyph glyph-name="l" unicode="l" horiz-adv-x="690" 
d="M82 0v1434h160v-1289h409v-145h-569z" />
    <glyph glyph-name="m" unicode="m" horiz-adv-x="1071" 
d="M80 0v1434h223l236 -1145l227 1145h223v-1434h-151v1153l-228 -1151h-153l-238 1141v-1143h-139z" />
    <glyph glyph-name="n" unicode="n" horiz-adv-x="837" 
d="M80 0v1434h203l331 -1037v1037h142v-1434h-166l-367 1159v-1159h-143z" />
    <glyph glyph-name="o" unicode="o" horiz-adv-x="796" 
d="M70 346l0.00195312 741c0 112.667 27.667 201 83 265s136.666 96 243.999 96c108 0 190 -32 246 -96s84 -152.333 84 -265v-741c0 -111.333 -28 -199.166 -84 -263.499s-138 -96.5 -246 -96.5c-106.667 0 -187.834 32.167 -243.501 96.5s-83.5 152.166 -83.5 263.499z
M227.002 338c0 -66.667 14.167 -117.833 42.5 -153.5s70.833 -53.5 127.5 -53.5c113.333 0 170 69 170 207v758c0 66 -14 117 -42 153s-70.667 54 -128 54c-56.667 0 -99.167 -18 -127.5 -54s-42.5 -87 -42.5 -153v-758z" />
    <glyph glyph-name="p" unicode="p" horiz-adv-x="759" 
d="M82 0v1434h313c109.333 0 190.333 -30.5 243 -91.5s79 -147.5 79 -259.5v-172c0 -230.667 -111.333 -346 -334 -346h-141v-565h-160zM242 709l141 0.000976562c60.667 0 105.167 15.167 133.5 45.5s42.5 79.166 42.5 146.499v191c0 66.667 -13 116 -39 148
s-67.667 48 -125 48h-153v-579z" />
    <glyph glyph-name="q" unicode="q" horiz-adv-x="802" 
d="M70 346l0.00195312 741.002c0 112.667 27.667 201 83 265s136.666 96 243.999 96c108 0 190 -32 246 -96s84 -152.333 84 -265v-741c0 -92 -18.333 -166.333 -55 -223c8 -16.667 18.833 -28.334 32.5 -35.001s32.167 -10 55.5 -10h20v-141h-26c-88 0 -149 30.667 -183 92
c-48 -28.667 -106 -43 -174 -43c-106.667 0 -187.834 32.167 -243.501 96.5s-83.5 152.166 -83.5 263.499zM227.002 338.002c0 -66.667 14.167 -117.833 42.5 -153.5s70.833 -53.5 127.5 -53.5c113.333 0 170 69 170 207v758c0 66 -14 117 -42 153s-70.667 54 -128 54
c-56.667 0 -99.167 -18 -127.5 -54s-42.5 -87 -42.5 -153v-758z" />
    <glyph glyph-name="r" unicode="r" horiz-adv-x="806" 
d="M82 0l0.000976562 1434h319c110.667 0 191.667 -27.5 243 -82.5s77 -136.833 77 -245.5v-117c0 -159.333 -59.333 -257.666 -178 -294.999c63.333 -18.667 109.166 -53.167 137.499 -103.5s42.5 -115.5 42.5 -195.5v-223c0 -79.333 9.66699 -136.666 29 -171.999h-162
c-18 41.333 -27 99.333 -27 174v225c0 78 -17.333 133 -52 165s-87 48 -157 48h-112v-612h-160zM242.001 757.998h118c68 0 118.833 14.167 152.5 42.5s50.5 79.5 50.5 153.5v138c0 66 -13.167 115.167 -39.5 147.5s-68.5 48.5 -126.5 48.5h-155v-530z" />
    <glyph glyph-name="s" unicode="s" horiz-adv-x="761" 
d="M59 344l0.00292969 82.001h150v-90c0 -136.667 56 -205 168 -205s168 68.333 168 205c0 42.667 -8.83301 82.667 -26.5 120s-40.5 70.333 -68.5 99s-59.167 56.834 -93.5 84.501l-102.5 86c-34 29.667 -65 61 -93 94s-50.833 72.667 -68.5 119s-26.5 96.833 -26.5 151.5
c0 113.333 26.5 201.333 79.5 264s132.167 94 237.5 94c106 0 185.667 -31.667 239 -95s80 -151 80 -263v-39h-151v47c0 136.667 -54.667 205 -164 205s-164 -67.667 -164 -203c0 -43.333 8.83301 -83.833 26.5 -121.5s40.667 -70.834 69 -99.501
s59.666 -56.834 93.999 -84.501l103 -86c34.333 -29.667 65.666 -61 93.999 -94s51.333 -72.667 69 -119s26.5 -96.833 26.5 -151.5c0 -111.333 -27.333 -198.833 -82 -262.5s-135.334 -95.5 -242.001 -95.5s-187 31.667 -241 95s-81 151 -81 263z" />
    <glyph glyph-name="t" unicode="t" horiz-adv-x="737" 
d="M25 1288v146h686v-146h-265v-1288h-157v1288h-264z" />
    <glyph glyph-name="u" unicode="u" 
d="M76 346v1088h157v-1096c0 -138 56 -207 168 -207c110.667 0 166 69 166 207v1096h150v-1088c0 -112.667 -26.833 -201.167 -80.5 -265.5s-134.167 -96.5 -241.5 -96.5c-106 0 -185.667 32.167 -239 96.5s-80 152.833 -80 265.5z" />
    <glyph glyph-name="v" unicode="v" horiz-adv-x="856" 
d="M41 1434h162l233 -1248l232 1248h147l-268 -1434h-236z" />
    <glyph glyph-name="w" unicode="w" horiz-adv-x="1193" 
d="M47 1434h156l168 -1221l159 1219h158l158 -1221l162 1223h139l-195 -1434h-211l-137 973l-141 -973h-219z" />
    <glyph glyph-name="x" unicode="x" horiz-adv-x="890" 
d="M47 0l289 739l-270 695h165l222 -574l223 574h149l-268 -695l287 -739h-168l-238 618l-239 -618h-152z" />
    <glyph glyph-name="y" unicode="y" horiz-adv-x="831" 
d="M33 1434h166l223 -705l225 705h152l-305 -920v-514h-158v514z" />
    <glyph glyph-name="z" unicode="z" horiz-adv-x="776" 
d="M59 0v143l492 1145h-469v146h633v-144l-494 -1145h490v-145h-652z" />
    <glyph glyph-name="braceleft" unicode="{" horiz-adv-x="526" 
d="M41 649l0.000976562 134.996c47.333 4 78.833 16.833 94.5 38.5s25.167 59.5 28.5 113.5l14 278c10.667 146.667 79 220 205 220h94v-131h-39c-41.333 0 -70.166 -12.167 -86.499 -36.5s-26.166 -64.833 -29.499 -121.5l-13 -232
c-1.33301 -24 -3.83301 -45.167 -7.5 -63.5s-10 -36.666 -19 -54.999s-22.5 -34.166 -40.5 -47.499s-40 -23.333 -66 -30c49.333 -13.333 83.166 -36.666 101.499 -69.999s28.833 -75.666 31.5 -126.999l13 -231c3.33301 -56.667 13.166 -97.167 29.499 -121.5
s45.166 -36.5 86.499 -36.5h39v-131h-94c-126 0 -194.333 73 -205 219l-14 279c-3.33301 53.333 -12.833 90.833 -28.5 112.5s-47.167 34.5 -94.5 38.5z" />
    <glyph glyph-name="bar" unicode="|" horiz-adv-x="763" 
d="M324 -90v1614h131v-1614h-131z" />
    <glyph glyph-name="braceright" unicode="}" horiz-adv-x="526" 
d="M49 0l-0.000976562 131.002h39c41.333 0 70.333 12.167 87 36.5s26.667 64.833 30 121.5l12 231c1.33301 24.667 3.83301 46 7.5 64s9.83398 36.333 18.501 55s22 34.667 40 48s40.333 23.333 67 30c-21.333 5.33301 -40 13.166 -56 23.499s-28.667 21.333 -38 33
s-16.833 25.667 -22.5 42s-9.66699 31.833 -12 46.5s-3.83301 31.667 -4.5 51l-12 232c-3.33301 56.667 -13.333 97.167 -30 121.5s-45.667 36.5 -87 36.5h-39v131h94c62.667 0 111.167 -19 145.5 -57s53.5 -92.333 57.5 -163l16 -278c3.33301 -54 12.5 -91.833 27.5 -113.5
s46.167 -34.5 93.5 -38.5v-135c-47.333 -4 -78.5 -16.667 -93.5 -38s-24.167 -59 -27.5 -113l-16 -279c-4 -70.667 -23.167 -124.834 -57.5 -162.501s-82.833 -56.5 -145.5 -56.5h-94z" />
    <glyph glyph-name="asciitilde" unicode="~" horiz-adv-x="811" 
d="M37 678c39.333 58.667 75.8311 100.33 109.498 124.997s70.167 37 109.5 37c26 0.666992 54 -5.66602 84 -18.999s56.167 -27.833 78.5 -43.5s46.833 -30.167 73.5 -43.5s50.334 -19.666 71.001 -18.999c24 0 45.167 8.33301 63.5 25s41.5 45.667 69.5 87l78 -77
c-37.333 -57.333 -72.166 -97.666 -104.499 -120.999s-67.833 -35.666 -106.5 -36.999c-26 -0.666992 -53.667 5.66602 -83 18.999s-55.166 28 -77.499 44s-47 30.667 -74 44s-51.167 20 -72.5 20c-26 0 -48.833 -8.5 -68.5 -25.5s-43.834 -46.833 -72.501 -89.5z" />
    <glyph glyph-name="uni00A0" unicode="&#xa0;" horiz-adv-x="317" 
 />
    <glyph glyph-name="cent" unicode="&#xa2;" 
d="M76 436v561.001c0 100 21.167 181.167 63.5 243.5s105.833 99.5 190.5 111.5v102h131v-100c86.667 -11.333 151.667 -47.5 195 -108.5s65 -141.5 65 -241.5v-82h-150v90c0 134.667 -56 202 -168 202c-111.333 0 -167 -68.667 -167 -206v-582
c0 -136.667 55.667 -205 167 -205c112 0 168 68.333 168 205v137h150v-127c0 -101.333 -21.667 -182.833 -65 -244.5s-108.333 -98.167 -195 -109.5v-102h-131v102c-84.667 12 -148.167 49.167 -190.5 111.5s-63.5 143.166 -63.5 242.499z" />
    <glyph glyph-name="sterling" unicode="&#xa3;" horiz-adv-x="800" 
d="M68 0l-0.000976562 139.002c60 24 109.167 64.5 147.5 121.5s55.166 123.833 50.499 200.5h-170v125h150c-10 32 -25 68.667 -45 110l-52.5 107.5c-15 30.333 -28.5 70.5 -40.5 120.5s-18 103.667 -18 161c0 113.333 26.5 202.166 79.5 266.499s133.167 96.5 240.5 96.5
c106 0 185.333 -32.667 238 -98s79 -154.333 79 -267v-114h-152v123c0 140.667 -53.667 211 -161 211c-109.333 0 -164 -69.667 -164 -209c0 -57.333 5.83301 -111.333 17.5 -162s24.834 -91.334 39.501 -122.001l50 -109.5c18.667 -42.333 32.667 -80.5 42 -114.5h275v-125
h-264c1.33301 -56.667 -9.16699 -110 -31.5 -160s-59.166 -102 -110.499 -156h453v-145h-653z" />
    <glyph glyph-name="yen" unicode="&#xa5;" horiz-adv-x="847" 
d="M37 1434h166l227 -701l229 701h152l-297 -875h195v-84h-205v-121h205v-82h-205v-272h-160v272h-205v82h205v121h-205v84h193z" />
    <glyph glyph-name="dieresis" unicode="&#xa8;" horiz-adv-x="448" 
d="M72 1518v184h139v-184h-139zM238 1518v184h139v-184h-139z" />
    <glyph glyph-name="copyright" unicode="&#xa9;" horiz-adv-x="1519" 
d="M55 717c0 137.333 30.333 261.335 91 372.002s144.834 197.167 252.501 259.5s228.167 93.5 361.5 93.5c100 0 193.667 -18.333 281 -55s161.833 -86.834 223.5 -150.501s110.334 -140.5 146.001 -230.5s53.5 -186.333 53.5 -289s-17.833 -199 -53.5 -289
s-84.334 -166.833 -146.001 -230.5s-136.167 -113.834 -223.5 -150.501s-181 -55 -281 -55c-133.333 0 -253.833 31.167 -361.5 93.5s-191.834 148.833 -252.501 259.5s-91 234.667 -91 372zM160 717.002c0 -117.333 25.833 -223.5 77.5 -318.5
s123.334 -169.5 215.001 -223.5s194.167 -81 307.5 -81s215.833 27 307.5 81s163.334 128.5 215.001 223.5s77.5 201.167 77.5 318.5s-25.833 223.333 -77.5 318s-123.334 169 -215.001 223s-194.167 81 -307.5 81s-215.833 -27 -307.5 -81s-163.334 -128.333 -215.001 -223
s-77.5 -200.667 -77.5 -318zM528 518.002v395.002c0 79.333 18.667 141.5 56 186.5s93.333 67.5 168 67.5c74 0 129.667 -22.5 167 -67.5s56 -107.167 56 -186.5v-61h-107v70c0 94 -38 141 -114 141c-38 0 -66.667 -12.333 -86 -37s-29 -59.334 -29 -104.001v-410
c0 -44.667 9.66699 -79.334 29 -104.001s48 -37 86 -37c76 0 114 47 114 141v100h107v-94c0 -78.667 -18.667 -140.334 -56 -185.001s-93 -67 -167 -67c-74.667 0 -130.667 22.333 -168 67s-56 106.334 -56 185.001z" />
    <glyph glyph-name="guillemotleft" unicode="&#xab;" horiz-adv-x="655" 
d="M49 719l129 514h146l-129 -514l129 -535h-146zM332 719l131 514h143l-129 -514l129 -535h-143z" />
    <glyph glyph-name="uni00AD" unicode="&#xad;" horiz-adv-x="542" 
d="M76 645v143h391v-143h-391z" />
    <glyph glyph-name="registered" unicode="&#xae;" horiz-adv-x="1519" 
d="M55 717c0 137.333 30.333 261.335 91 372.002s144.834 197.167 252.501 259.5s228.167 93.5 361.5 93.5c100 0 193.667 -18.333 281 -55s161.833 -86.834 223.5 -150.501s110.334 -140.5 146.001 -230.5s53.5 -186.333 53.5 -289s-17.833 -199 -53.5 -289
s-84.334 -166.833 -146.001 -230.5s-136.167 -113.834 -223.5 -150.501s-181 -55 -281 -55c-133.333 0 -253.833 31.167 -361.5 93.5s-191.834 148.833 -252.501 259.5s-91 234.667 -91 372zM160 717.002c0 -117.333 25.833 -223.5 77.5 -318.5
s123.334 -169.5 215.001 -223.5s194.167 -81 307.5 -81s215.833 27 307.5 81s163.334 128.5 215.001 223.5s77.5 201.167 77.5 318.5s-25.833 223.333 -77.5 318s-123.334 169 -215.001 223s-194.167 81 -307.5 81s-215.833 -27 -307.5 -81s-163.334 -128.333 -215.001 -223
s-77.5 -200.667 -77.5 -318zM547 279.002v875.999h223c76.667 0 133 -19.167 169 -57.5s54 -95.5 54 -171.5v-21c0 -108.667 -39.667 -177.667 -119 -207c79.333 -26.667 119 -94.667 119 -204v-95c0 -53.333 7.66699 -93.333 23 -120h-117c-10.667 26 -16 66 -16 120v95
c0 54.667 -12.5 92.834 -37.5 114.501s-62.5 32.5 -112.5 32.5h-76v-362h-110zM657 745.001h93c44 0 76.833 10.333 98.5 31s32.5 55.667 32.5 105v32c0 46.667 -9 81.667 -27 105s-48 35 -90 35h-107v-308z" />
    <glyph glyph-name="acute" unicode="&#xb4;" horiz-adv-x="456" 
d="M63 1526l144 211h158l-191 -211h-111z" />
    <glyph glyph-name="cedilla" unicode="&#xb8;" horiz-adv-x="509" 
d="M63 -168l109 0.000976562v-14c0 -20.667 7.83301 -35.834 23.5 -45.501s34.5 -15.167 56.5 -16.5c23.333 0 42.833 5.66699 58.5 17s23.5 28.333 23.5 51c0 43.333 -32 65 -96 65h-17v129h72v-98c49.333 0 86.833 -7.5 112.5 -22.5s38.5 -40.833 38.5 -77.5
c0 -25.333 -5 -46.5 -15 -63.5s-24.333 -29.833 -43 -38.5s-38.5 -14.667 -59.5 -18s-45.833 -5 -74.5 -5c-56 0 -101.5 9.5 -136.5 28.5s-52.5 49.833 -52.5 92.5v16z" />
    <glyph glyph-name="guillemotright" unicode="&#xbb;" horiz-adv-x="655" 
d="M49 184l129 535l-129 514h144l131 -514l-131 -535h-144zM332 184l129 535l-129 514h143l131 -514l-131 -535h-143z" />
    <glyph glyph-name="circumflex" unicode="&#x2c6;" horiz-adv-x="512" 
d="M8 1532l178 205h142l176 -205h-139l-109 121l-109 -121h-139z" />
    <glyph glyph-name="ring" unicode="&#x2da;" horiz-adv-x="479" 
d="M88 1667c0 42 14.833 77.5 44.5 106.5s65.5 43.5 107.5 43.5s77.333 -14.5 106 -43.5s43 -64.5 43 -106.5s-14.333 -77.333 -43 -106s-64 -43 -106 -43s-77.833 14.333 -107.5 43s-44.5 64 -44.5 106zM164 1667c0 -21.333 7.33301 -39 22 -53s32.667 -21 54 -21
c20.667 0 38 7 52 21s21 31.667 21 53s-7 39 -21 53s-31.333 21 -52 21c-21.333 0 -39.333 -7 -54 -21s-22 -31.667 -22 -53z" />
    <glyph glyph-name="tilde" unicode="&#x2dc;" horiz-adv-x="524" 
d="M12 1577c33.333 79.333 84.001 118.999 152.001 118.999c28.667 0 62.5 -10.167 101.5 -30.5s67.833 -30.166 86.5 -29.499c33.333 0 60.666 20 81.999 60l78 -54c-30 -78.667 -78.333 -118 -145 -118c-28 0 -61.5 10 -100.5 30s-68.5 29.667 -88.5 29
c-37.333 0 -66 -19.667 -86 -59z" />
    <glyph glyph-name="afii10023" unicode="&#x401;" horiz-adv-x="737" 
d="M82 0v1434h590v-146h-430v-489h350v-144h-350v-510h430v-145h-590zM178 1518v184h139v-184h-139zM432 1518v184h141v-184h-141z" />
    <glyph glyph-name="afii10017" unicode="&#x410;" horiz-adv-x="864" 
d="M41 0l274 1434h232l274 -1434h-159l-56 289h-362l-56 -289h-147zM264 426h320l-162 827z" />
    <glyph glyph-name="afii10018" unicode="&#x411;" horiz-adv-x="821" 
d="M84 0v1434h604v-146h-446v-446h168c225.333 0 338 -112 338 -336v-158c0 -232 -110 -348 -330 -348h-334zM242 145h176c58.667 0 101.667 15.5 129 46.5s41 79.833 41 146.5v178c0 67.333 -14.333 114.5 -43 141.5s-73.667 40.5 -135 40.5h-168v-553z" />
    <glyph glyph-name="afii10019" unicode="&#x412;" horiz-adv-x="802" 
d="M82 0l0.00195312 1434h321c109.333 0 188.666 -26.167 237.999 -78.5s74 -132.166 74 -239.499v-67c0 -78.667 -12.833 -141.167 -38.5 -187.5s-68.834 -78.833 -129.501 -97.5c128 -36 192 -138.333 192 -307v-121c0 -109.333 -27 -192.666 -81 -249.999
s-136 -86 -246 -86h-330zM242.002 144.998l170.001 -0.000976562c58.667 0 101.667 15.833 129 47.5s41 80.834 41 147.501v127c0 78 -15.833 133 -47.5 165s-82.834 48 -153.501 48h-139v-535zM242.003 824.997h122.999c66.667 0 115.334 13.833 146.001 41.5
s46 77.5 46 149.5v84c0 64.667 -12.167 112.167 -36.5 142.5s-64.833 45.5 -121.5 45.5h-157v-463z" />
    <glyph glyph-name="afii10020" unicode="&#x413;" horiz-adv-x="729" 
d="M84 0v1434h571v-146h-413v-1288h-158z" />
    <glyph glyph-name="afii10021" unicode="&#x414;" horiz-adv-x="1001" 
d="M49 141l92 0.00195312c22.667 25.333 38.5 54.166 47.5 86.499s14.5 73.166 16.5 122.499l55 1084h576v-1293h108v-338h-156v197h-585v-197h-154v338zM295 141.002h378.998v1147h-266l-48 -936c-3.33301 -54 -9.66602 -97 -18.999 -129s-24.666 -59.333 -45.999 -82z" />
    <glyph glyph-name="afii10022" unicode="&#x415;" horiz-adv-x="737" 
d="M82 0v1434h590v-146h-430v-489h350v-144h-350v-510h430v-145h-590z" />
    <glyph glyph-name="afii10024" unicode="&#x416;" horiz-adv-x="1255" 
d="M37 0l328 825l-320 609h160l344 -660v660h158v-660l346 660h159l-317 -605l326 -829h-164l-275 676l-75 -135v-541h-158v541l-74 137l-274 -678h-164z" />
    <glyph glyph-name="afii10025" unicode="&#x417;" 
d="M74 346l0.000976562 139h149v-147c0 -66 14 -117 42 -153s70 -54 126 -54c112 0 168 73 168 219v113c0 69.333 -15.5 122.166 -46.5 158.499s-76.833 54.5 -137.5 54.5h-68v143h76c54 0 96.833 17.333 128.5 52s47.5 83 47.5 145v65
c0 74.667 -13.5 130.334 -40.5 167.001s-69.5 55 -127.5 55c-56 0 -98 -18 -126 -54s-42 -87 -42 -153v-97h-147v91c0 112.667 26.5 200.5 79.5 263.5s132.833 94.5 239.5 94.5c107.333 0 188.166 -32.167 242.499 -96.5s81.5 -152.5 81.5 -264.5v-36
c0 -74.667 -14.833 -137.5 -44.5 -188.5s-73.5 -87.167 -131.5 -108.5c58.667 -20 102.667 -55.667 132 -107s44 -114 44 -188v-113c0 -112 -27.167 -200 -81.5 -264s-135.166 -96 -242.499 -96c-106.667 0 -186.834 32 -240.501 96s-80.5 152 -80.5 264z" />
    <glyph glyph-name="afii10026" unicode="&#x418;" horiz-adv-x="837" 
d="M82 0v1434h141v-1069l148 452l209 617h178v-1434h-144v1141l-153 -475l-213 -666h-166z" />
    <glyph glyph-name="afii10027" unicode="&#x419;" horiz-adv-x="839" 
d="M82 0v1434h141v-1069l135 419l222 650h178v-1434h-144v1141l-149 -463l-217 -678h-166zM207 1729h100.001c5.33301 -70 45.666 -105 120.999 -105c76.667 0 117.667 35 123 105h98c0 -62.667 -19.667 -111.834 -59 -147.501s-93.333 -53.5 -162 -53.5
c-68 0 -121.333 17.833 -160 53.5s-59 84.834 -61 147.501z" />
    <glyph glyph-name="afii10028" unicode="&#x41a;" horiz-adv-x="837" 
d="M82 0v1434h160v-693l381 693h161l-362 -654l375 -780h-164l-307 623l-84 -142v-481h-160z" />
    <glyph glyph-name="afii10029" unicode="&#x41b;" horiz-adv-x="909" 
d="M39 -2v144.999c62.667 0 104.5 15.5 125.5 46.5s32.5 83.833 34.5 158.5l39 1086h583v-1434h-159v1288h-275l-33 -932c-4 -121.333 -27 -211.166 -69 -269.499s-115 -87.833 -219 -88.5h-27z" />
    <glyph glyph-name="afii10030" unicode="&#x41c;" horiz-adv-x="1071" 
d="M80 0v1434h223l236 -1145l227 1145h223v-1434h-151v1153l-228 -1151h-153l-238 1141v-1143h-139z" />
    <glyph glyph-name="afii10031" unicode="&#x41d;" horiz-adv-x="835" 
d="M82 0v1434h160v-646h352v646h160v-1434h-160v645h-352v-645h-160z" />
    <glyph glyph-name="afii10032" unicode="&#x41e;" horiz-adv-x="796" 
d="M70 346l0.00195312 741c0 112.667 27.667 201 83 265s136.666 96 243.999 96c108 0 190 -32 246 -96s84 -152.333 84 -265v-741c0 -111.333 -28 -199.166 -84 -263.499s-138 -96.5 -246 -96.5c-106.667 0 -187.834 32.167 -243.501 96.5s-83.5 152.166 -83.5 263.499z
M227.002 338c0 -66.667 14.167 -117.833 42.5 -153.5s70.833 -53.5 127.5 -53.5c113.333 0 170 69 170 207v758c0 66 -14 117 -42 153s-70.667 54 -128 54c-56.667 0 -99.167 -18 -127.5 -54s-42.5 -87 -42.5 -153v-758z" />
    <glyph glyph-name="afii10033" unicode="&#x41f;" horiz-adv-x="835" 
d="M82 0v1434h672v-1434h-160v1288h-352v-1288h-160z" />
    <glyph glyph-name="afii10034" unicode="&#x420;" horiz-adv-x="759" 
d="M82 0v1434h313c109.333 0 190.333 -30.5 243 -91.5s79 -147.5 79 -259.5v-172c0 -230.667 -111.333 -346 -334 -346h-141v-565h-160zM242 709l141 0.000976562c60.667 0 105.167 15.167 133.5 45.5s42.5 79.166 42.5 146.499v191c0 66.667 -13 116 -39 148
s-67.667 48 -125 48h-153v-579z" />
    <glyph glyph-name="afii10035" unicode="&#x421;" horiz-adv-x="778" 
d="M70 346v741c0 112 26.833 200.167 80.5 264.5s133.834 96.5 240.501 96.5c107.333 0 188.166 -32.167 242.499 -96.5s81.5 -152.5 81.5 -264.5v-129h-152v138c0 138 -56 207 -168 207c-56 0 -98 -18 -126 -54s-42 -87 -42 -153v-758c0 -66 14 -117 42 -153
s70 -54 126 -54c112 0 168 69 168 207v186h152v-178c0 -112 -27.167 -200 -81.5 -264s-135.166 -96 -242.499 -96c-106.667 0 -186.834 32 -240.501 96s-80.5 152 -80.5 264z" />
    <glyph glyph-name="afii10036" unicode="&#x422;" horiz-adv-x="761" 
d="M37 1288v146h688v-146h-264v-1288h-160v1288h-264z" />
    <glyph glyph-name="afii10037" unicode="&#x423;" horiz-adv-x="854" 
d="M37 1434l159.999 0.000976562l145 -498l98 -361l84 361l129 498h166l-307 -1119c-13.333 -58 -28.166 -105.667 -44.499 -143s-38.833 -70.5 -67.5 -99.5s-65 -49.333 -109 -61s-98 -16.167 -162 -13.5v143c61.333 -2.66699 107.5 6.66602 138.5 27.999
s53.167 59.333 66.5 114l33 94z" />
    <glyph glyph-name="afii10038" unicode="&#x424;" horiz-adv-x="1165" 
d="M70 516v391c0 239.333 110.333 359 331 359h101v168h157v-168h101c112 0 195.333 -30.833 250 -92.5s82 -150.5 82 -266.5v-391c0 -238.667 -110.667 -358 -332 -358h-101v-158h-157v158h-101c-220.667 0 -331 119.333 -331 358zM227 506c0 -139.333 58 -209 174 -209
h101v827h-101c-60 0 -104 -17 -132 -51s-42 -85.667 -42 -155v-412zM659 297h101c117.333 0 176 69.667 176 209v412c0 69.333 -14.167 121 -42.5 155s-72.833 51 -133.5 51h-101v-827z" />
    <glyph glyph-name="afii10039" unicode="&#x425;" horiz-adv-x="890" 
d="M47 0l289 739l-270 695h165l222 -574l223 574h149l-268 -695l287 -739h-168l-238 618l-239 -618h-152z" />
    <glyph glyph-name="afii10040" unicode="&#x426;" horiz-adv-x="931" 
d="M96 0v1434h158v-1289h352v1289h162v-1293h109v-334h-156v193h-625z" />
    <glyph glyph-name="afii10041" unicode="&#x427;" horiz-adv-x="821" 
d="M72 862l0.000976562 571.999h159v-560c0 -62 15.667 -111.833 47 -149.5s74.666 -56.5 129.999 -56.5c48 0 86.667 14.333 116 43s48 70.334 56 125.001v598h157v-1434h-157v635c-24.667 -36 -57.167 -63.833 -97.5 -83.5s-82.5 -29.5 -126.5 -29.5
c-92.667 0 -163.167 31.333 -211.5 94s-72.5 144.667 -72.5 246z" />
    <glyph glyph-name="afii10042" unicode="&#x428;" horiz-adv-x="1189" 
d="M82 0v1434h160v-1289h274v1289h160v-1289h274v1289h158v-1434h-1026z" />
    <glyph glyph-name="afii10043" unicode="&#x429;" horiz-adv-x="1273" 
d="M82 0v1434h160v-1289h274v1289h158v-1289h276v1289h158v-1293h111v-334h-154v193h-983z" />
    <glyph glyph-name="afii10044" unicode="&#x42a;" horiz-adv-x="897" 
d="M20 1290v144h338v-566h144c222.667 0 334 -115.333 334 -346v-172c0 -112 -26.5 -198.333 -79.5 -259s-133.833 -91 -242.5 -91h-313v1290h-181zM358 145h156.001c57.333 0 98.666 16.167 123.999 48.5s38 81.833 38 148.5v190c0 68.667 -14 118 -42 148s-72 45 -132 45
h-144v-580z" />
    <glyph glyph-name="afii10045" unicode="&#x42b;" horiz-adv-x="1089" 
d="M82 0v1434h160v-566h141c222.667 0 334 -115.333 334 -346v-172c0 -112 -26.5 -198.333 -79.5 -259s-133.833 -91 -242.5 -91h-313zM242 145h153c57.333 0 99 16.167 125 48.5s39 81.833 39 148.5v190c0 68.667 -14.167 118 -42.5 148s-72.833 45 -133.5 45h-141v-580z
M850 0v1434h158v-1434h-158z" />
    <glyph glyph-name="afii10046" unicode="&#x42c;" horiz-adv-x="780" 
d="M82 0v1434h160v-566h141c222.667 0 334 -115.333 334 -346v-172c0 -112 -26.5 -198.333 -79.5 -259s-133.833 -91 -242.5 -91h-313zM242 145h153c57.333 0 99 16.167 125 48.5s39 81.833 39 148.5v190c0 68.667 -14.167 118 -42.5 148s-72.833 45 -133.5 45h-141v-580z
" />
    <glyph glyph-name="afii10047" unicode="&#x42d;" horiz-adv-x="778" 
d="M63 346v156h150v-164c0 -66 14 -117 42 -153s70 -54 126 -54s98 18 126 54s42 87 42 153v332h-250v143h250v283c0 66 -14 117 -42 153s-70 54 -126 54s-98 -18 -126 -54s-42 -87 -42 -153v-115h-147v106c0 112.667 26.667 201 80 265s133 96 239 96
c106.667 0 187 -32.167 241 -96.5s81 -152.5 81 -264.5v-741c0 -112 -27 -200 -81 -264s-134.333 -96 -241 -96s-187 32 -241 96s-81 152 -81 264z" />
    <glyph glyph-name="afii10048" unicode="&#x42e;" horiz-adv-x="1177" 
d="M82 0v1434h160v-646h207v299c0 112.667 27.833 201 83.5 265s137.5 96 245.5 96c107.333 0 188.833 -32.167 244.5 -96.5s83.5 -152.5 83.5 -264.5v-741c0 -111.333 -28 -199.166 -84 -263.499s-137.333 -96.5 -244 -96.5c-108 0 -189.833 32.167 -245.5 96.5
s-83.5 152.166 -83.5 263.499v299h-207v-645h-160zM608 338c0 -66 14 -117.001 42 -153.001s70.667 -54 128 -54c56.667 0 99.167 18 127.5 54s42.5 87 42.5 153v758c0 66.667 -14.167 117.834 -42.5 153.501s-70.833 53.5 -127.5 53.5c-113.333 0 -170 -69 -170 -207v-758z
" />
    <glyph glyph-name="afii10049" unicode="&#x42f;" horiz-adv-x="806" 
d="M55 0c19.333 38 29 95.333 29 172v223c0 163.333 59.333 263 178 299c-117.333 38 -176 136.333 -176 295v117c0 108.667 25.667 190.5 77 245.5s132.333 82.5 243 82.5h319v-1434h-160v612h-112c-70 0 -122.333 -16 -157 -48s-52 -87 -52 -165v-225
c0 -74.667 -9 -132.667 -27 -174h-162zM244 954c0 -74 16.5 -125.167 49.5 -153.5s83.167 -42.5 150.5 -42.5h121v530h-155c-58 0 -100.167 -16.167 -126.5 -48.5s-39.5 -81.5 -39.5 -147.5v-138z" />
    <glyph glyph-name="afii10065" unicode="&#x430;" horiz-adv-x="864" 
d="M41 0l274 1434h232l274 -1434h-159l-56 289h-362l-56 -289h-147zM264 426h320l-162 827z" />
    <glyph glyph-name="afii10066" unicode="&#x431;" horiz-adv-x="821" 
d="M84 0v1434h604v-146h-446v-446h168c225.333 0 338 -112 338 -336v-158c0 -232 -110 -348 -330 -348h-334zM242 145h176c58.667 0 101.667 15.5 129 46.5s41 79.833 41 146.5v178c0 67.333 -14.333 114.5 -43 141.5s-73.667 40.5 -135 40.5h-168v-553z" />
    <glyph glyph-name="afii10067" unicode="&#x432;" horiz-adv-x="802" 
d="M82 0l0.00195312 1434h321c109.333 0 188.666 -26.167 237.999 -78.5s74 -132.166 74 -239.499v-67c0 -78.667 -12.833 -141.167 -38.5 -187.5s-68.834 -78.833 -129.501 -97.5c128 -36 192 -138.333 192 -307v-121c0 -109.333 -27 -192.666 -81 -249.999
s-136 -86 -246 -86h-330zM242.002 144.998l170.001 -0.000976562c58.667 0 101.667 15.833 129 47.5s41 80.834 41 147.501v127c0 78 -15.833 133 -47.5 165s-82.834 48 -153.501 48h-139v-535zM242.003 824.997h122.999c66.667 0 115.334 13.833 146.001 41.5
s46 77.5 46 149.5v84c0 64.667 -12.167 112.167 -36.5 142.5s-64.833 45.5 -121.5 45.5h-157v-463z" />
    <glyph glyph-name="afii10068" unicode="&#x433;" horiz-adv-x="729" 
d="M84 0v1434h571v-146h-413v-1288h-158z" />
    <glyph glyph-name="afii10069" unicode="&#x434;" horiz-adv-x="1001" 
d="M49 141l92 0.00195312c22.667 25.333 38.5 54.166 47.5 86.499s14.5 73.166 16.5 122.499l55 1084h576v-1293h108v-338h-156v197h-585v-197h-154v338zM295 141.002h378.998v1147h-266l-48 -936c-3.33301 -54 -9.66602 -97 -18.999 -129s-24.666 -59.333 -45.999 -82z" />
    <glyph glyph-name="afii10070" unicode="&#x435;" horiz-adv-x="737" 
d="M82 0v1434h590v-146h-430v-489h350v-144h-350v-510h430v-145h-590z" />
    <glyph glyph-name="afii10072" unicode="&#x436;" horiz-adv-x="1255" 
d="M37 0l328 825l-320 609h160l344 -660v660h158v-660l346 660h159l-317 -605l326 -829h-164l-275 676l-75 -135v-541h-158v541l-74 137l-274 -678h-164z" />
    <glyph glyph-name="afii10073" unicode="&#x437;" 
d="M74 346l0.000976562 139h149v-147c0 -66 14 -117 42 -153s70 -54 126 -54c112 0 168 73 168 219v113c0 69.333 -15.5 122.166 -46.5 158.499s-76.833 54.5 -137.5 54.5h-68v143h76c54 0 96.833 17.333 128.5 52s47.5 83 47.5 145v65
c0 74.667 -13.5 130.334 -40.5 167.001s-69.5 55 -127.5 55c-56 0 -98 -18 -126 -54s-42 -87 -42 -153v-97h-147v91c0 112.667 26.5 200.5 79.5 263.5s132.833 94.5 239.5 94.5c107.333 0 188.166 -32.167 242.499 -96.5s81.5 -152.5 81.5 -264.5v-36
c0 -74.667 -14.833 -137.5 -44.5 -188.5s-73.5 -87.167 -131.5 -108.5c58.667 -20 102.667 -55.667 132 -107s44 -114 44 -188v-113c0 -112 -27.167 -200 -81.5 -264s-135.166 -96 -242.499 -96c-106.667 0 -186.834 32 -240.501 96s-80.5 152 -80.5 264z" />
    <glyph glyph-name="afii10074" unicode="&#x438;" horiz-adv-x="837" 
d="M82 0v1434h141v-1069l127 395l230 674h178v-1434h-144v1141l-155 -479l-211 -662h-166z" />
    <glyph glyph-name="afii10075" unicode="&#x439;" horiz-adv-x="839" 
d="M82 0v1434h141v-1069l133 413l224 656h178v-1434h-144v1141l-143 -451l-223 -690h-166zM207 1726h99.998c2.66699 -38 14.334 -64.833 35.001 -80.5s49.334 -23.5 86.001 -23.5c76.667 0 117.667 34.667 123 104h98c0 -62.667 -19.667 -111.667 -59 -147
s-93.333 -53 -162 -53c-68 0 -121.333 17.667 -160 53s-59 84.333 -61 147z" />
    <glyph glyph-name="afii10076" unicode="&#x43a;" horiz-adv-x="837" 
d="M82 0v1434h160v-693l381 693h161l-362 -654l375 -780h-164l-307 623l-84 -142v-481h-160z" />
    <glyph glyph-name="afii10077" unicode="&#x43b;" horiz-adv-x="909" 
d="M39 -2v144.999c62.667 0 104.5 15.5 125.5 46.5s32.5 83.833 34.5 158.5l39 1086h583v-1434h-159v1288h-275l-33 -932c-4 -121.333 -27 -211.166 -69 -269.499s-115 -87.833 -219 -88.5h-27z" />
    <glyph glyph-name="afii10078" unicode="&#x43c;" horiz-adv-x="1071" 
d="M80 0v1434h223l236 -1145l227 1145h223v-1434h-151v1153l-228 -1151h-153l-238 1141v-1143h-139z" />
    <glyph glyph-name="afii10079" unicode="&#x43d;" horiz-adv-x="835" 
d="M82 0v1434h160v-646h352v646h160v-1434h-160v645h-352v-645h-160z" />
    <glyph glyph-name="afii10080" unicode="&#x43e;" horiz-adv-x="796" 
d="M70 346l0.00195312 741c0 112.667 27.667 201 83 265s136.666 96 243.999 96c108 0 190 -32 246 -96s84 -152.333 84 -265v-741c0 -111.333 -28 -199.166 -84 -263.499s-138 -96.5 -246 -96.5c-106.667 0 -187.834 32.167 -243.501 96.5s-83.5 152.166 -83.5 263.499z
M227.002 338c0 -66.667 14.167 -117.833 42.5 -153.5s70.833 -53.5 127.5 -53.5c113.333 0 170 69 170 207v758c0 66 -14 117 -42 153s-70.667 54 -128 54c-56.667 0 -99.167 -18 -127.5 -54s-42.5 -87 -42.5 -153v-758z" />
    <glyph glyph-name="afii10081" unicode="&#x43f;" horiz-adv-x="835" 
d="M82 0v1434h672v-1434h-160v1288h-352v-1288h-160z" />
    <glyph glyph-name="afii10082" unicode="&#x440;" horiz-adv-x="759" 
d="M82 0v1434h313c109.333 0 190.333 -30.5 243 -91.5s79 -147.5 79 -259.5v-172c0 -230.667 -111.333 -346 -334 -346h-141v-565h-160zM242 709l141 0.000976562c60.667 0 105.167 15.167 133.5 45.5s42.5 79.166 42.5 146.499v191c0 66.667 -13 116 -39 148
s-67.667 48 -125 48h-153v-579z" />
    <glyph glyph-name="afii10083" unicode="&#x441;" horiz-adv-x="778" 
d="M70 346v741c0 112 26.833 200.167 80.5 264.5s133.834 96.5 240.501 96.5c107.333 0 188.166 -32.167 242.499 -96.5s81.5 -152.5 81.5 -264.5v-129h-152v138c0 138 -56 207 -168 207c-56 0 -98 -18 -126 -54s-42 -87 -42 -153v-758c0 -66 14 -117 42 -153
s70 -54 126 -54c112 0 168 69 168 207v186h152v-178c0 -112 -27.167 -200 -81.5 -264s-135.166 -96 -242.499 -96c-106.667 0 -186.834 32 -240.501 96s-80.5 152 -80.5 264z" />
    <glyph glyph-name="afii10084" unicode="&#x442;" horiz-adv-x="761" 
d="M37 1288v146h688v-146h-264v-1288h-160v1288h-264z" />
    <glyph glyph-name="afii10085" unicode="&#x443;" horiz-adv-x="854" 
d="M37 1434l159.999 0.000976562l145 -498l98 -361l84 361l129 498h166l-307 -1119c-13.333 -58 -28.166 -105.667 -44.499 -143s-38.833 -70.5 -67.5 -99.5s-65 -49.333 -109 -61s-98 -16.167 -162 -13.5v143c61.333 -2.66699 107.5 6.66602 138.5 27.999
s53.167 59.333 66.5 114l33 94z" />
    <glyph glyph-name="afii10086" unicode="&#x444;" horiz-adv-x="1165" 
d="M70 516v391c0 239.333 110.333 359 331 359h101v168h157v-168h101c112 0 195.333 -30.833 250 -92.5s82 -150.5 82 -266.5v-391c0 -238.667 -110.667 -358 -332 -358h-101v-158h-157v158h-101c-220.667 0 -331 119.333 -331 358zM227 506c0 -139.333 58 -209 174 -209
h101v827h-101c-60 0 -104 -17 -132 -51s-42 -85.667 -42 -155v-412zM659 297h101c117.333 0 176 69.667 176 209v412c0 69.333 -14.167 121 -42.5 155s-72.833 51 -133.5 51h-101v-827z" />
    <glyph glyph-name="afii10087" unicode="&#x445;" horiz-adv-x="890" 
d="M47 0l289 739l-270 695h165l222 -574l223 574h149l-268 -695l287 -739h-168l-238 618l-239 -618h-152z" />
    <glyph glyph-name="afii10088" unicode="&#x446;" horiz-adv-x="931" 
d="M96 0v1434h158v-1289h352v1289h162v-1293h109v-334h-156v193h-625z" />
    <glyph glyph-name="afii10089" unicode="&#x447;" horiz-adv-x="821" 
d="M72 862l0.000976562 571.999h159v-560c0 -62 15.667 -111.833 47 -149.5s74.666 -56.5 129.999 -56.5c48 0 86.667 14.333 116 43s48 70.334 56 125.001v598h157v-1434h-157v635c-24.667 -36 -57.167 -63.833 -97.5 -83.5s-82.5 -29.5 -126.5 -29.5
c-92.667 0 -163.167 31.333 -211.5 94s-72.5 144.667 -72.5 246z" />
    <glyph glyph-name="afii10090" unicode="&#x448;" horiz-adv-x="1189" 
d="M82 0v1434h160v-1289h274v1289h160v-1289h274v1289h158v-1434h-1026z" />
    <glyph glyph-name="afii10091" unicode="&#x449;" horiz-adv-x="1273" 
d="M82 0v1434h160v-1289h274v1289h158v-1289h276v1289h158v-1293h111v-334h-154v193h-983z" />
    <glyph glyph-name="afii10092" unicode="&#x44a;" horiz-adv-x="897" 
d="M20 1290v144h338v-566h144c222.667 0 334 -115.333 334 -346v-172c0 -112 -26.5 -198.333 -79.5 -259s-133.833 -91 -242.5 -91h-313v1290h-181zM358 145h156.001c57.333 0 98.666 16.167 123.999 48.5s38 81.833 38 148.5v190c0 68.667 -14 118 -42 148s-72 45 -132 45
h-144v-580z" />
    <glyph glyph-name="afii10093" unicode="&#x44b;" horiz-adv-x="1089" 
d="M82 0v1434h160v-566h141c222.667 0 334 -115.333 334 -346v-172c0 -112 -26.5 -198.333 -79.5 -259s-133.833 -91 -242.5 -91h-313zM242 145h153c57.333 0 99 16.167 125 48.5s39 81.833 39 148.5v190c0 68.667 -14.167 118 -42.5 148s-72.833 45 -133.5 45h-141v-580z
M850 0v1434h158v-1434h-158z" />
    <glyph glyph-name="afii10094" unicode="&#x44c;" horiz-adv-x="780" 
d="M82 0v1434h160v-566h141c222.667 0 334 -115.333 334 -346v-172c0 -112 -26.5 -198.333 -79.5 -259s-133.833 -91 -242.5 -91h-313zM242 145h153c57.333 0 99 16.167 125 48.5s39 81.833 39 148.5v190c0 68.667 -14.167 118 -42.5 148s-72.833 45 -133.5 45h-141v-580z
" />
    <glyph glyph-name="afii10095" unicode="&#x44d;" horiz-adv-x="778" 
d="M63 346v156h150v-164c0 -66 14 -117 42 -153s70 -54 126 -54s98 18 126 54s42 87 42 153v332h-250v143h250v283c0 66 -14 117 -42 153s-70 54 -126 54s-98 -18 -126 -54s-42 -87 -42 -153v-115h-147v106c0 112.667 26.667 201 80 265s133 96 239 96
c106.667 0 187 -32.167 241 -96.5s81 -152.5 81 -264.5v-741c0 -112 -27 -200 -81 -264s-134.333 -96 -241 -96s-187 32 -241 96s-81 152 -81 264z" />
    <glyph glyph-name="afii10096" unicode="&#x44e;" horiz-adv-x="1177" 
d="M82 0v1434h160v-646h207v299c0 112.667 27.833 201 83.5 265s137.5 96 245.5 96c107.333 0 188.833 -32.167 244.5 -96.5s83.5 -152.5 83.5 -264.5v-741c0 -111.333 -28 -199.166 -84 -263.499s-137.333 -96.5 -244 -96.5c-108 0 -189.833 32.167 -245.5 96.5
s-83.5 152.166 -83.5 263.499v299h-207v-645h-160zM608 338c0 -66 14 -117.001 42 -153.001s70.667 -54 128 -54c56.667 0 99.167 18 127.5 54s42.5 87 42.5 153v758c0 66.667 -14.167 117.834 -42.5 153.501s-70.833 53.5 -127.5 53.5c-113.333 0 -170 -69 -170 -207v-758z
" />
    <glyph glyph-name="afii10097" unicode="&#x44f;" horiz-adv-x="806" 
d="M55 0c19.333 38 29 95.333 29 172v223c0 163.333 59.333 263 178 299c-117.333 38 -176 136.333 -176 295v117c0 108.667 25.667 190.5 77 245.5s132.333 82.5 243 82.5h319v-1434h-160v612h-112c-70 0 -122.333 -16 -157 -48s-52 -87 -52 -165v-225
c0 -74.667 -9 -132.667 -27 -174h-162zM244 954c0 -74 16.5 -125.167 49.5 -153.5s83.167 -42.5 150.5 -42.5h121v530h-155c-58 0 -100.167 -16.167 -126.5 -48.5s-39.5 -81.5 -39.5 -147.5v-138z" />
    <glyph glyph-name="afii10071" unicode="&#x451;" horiz-adv-x="737" 
d="M82 0v1434h590v-146h-430v-489h350v-144h-350v-510h430v-145h-590zM178 1518v184h139v-184h-139zM432 1518v184h141v-184h-141z" />
    <glyph glyph-name="uni2000" unicode="&#x2000;" horiz-adv-x="908" 
 />
    <glyph glyph-name="uni2001" unicode="&#x2001;" horiz-adv-x="1817" 
 />
    <glyph glyph-name="uni2002" unicode="&#x2002;" horiz-adv-x="908" 
 />
    <glyph glyph-name="uni2003" unicode="&#x2003;" horiz-adv-x="1817" 
 />
    <glyph glyph-name="uni2004" unicode="&#x2004;" horiz-adv-x="605" 
 />
    <glyph glyph-name="uni2005" unicode="&#x2005;" horiz-adv-x="454" 
 />
    <glyph glyph-name="uni2006" unicode="&#x2006;" horiz-adv-x="302" 
 />
    <glyph glyph-name="uni2007" unicode="&#x2007;" horiz-adv-x="302" 
 />
    <glyph glyph-name="uni2008" unicode="&#x2008;" horiz-adv-x="227" 
 />
    <glyph glyph-name="uni2009" unicode="&#x2009;" horiz-adv-x="363" 
 />
    <glyph glyph-name="uni200A" unicode="&#x200a;" horiz-adv-x="100" 
 />
    <glyph glyph-name="uni2010" unicode="&#x2010;" horiz-adv-x="542" 
d="M76 645v143h391v-143h-391z" />
    <glyph glyph-name="uni2011" unicode="&#x2011;" horiz-adv-x="542" 
d="M76 645v143h391v-143h-391z" />
    <glyph glyph-name="figuredash" unicode="&#x2012;" horiz-adv-x="542" 
d="M76 645v143h391v-143h-391z" />
    <glyph glyph-name="endash" unicode="&#x2013;" horiz-adv-x="937" 
d="M27 651v131h884v-131h-884z" />
    <glyph glyph-name="emdash" unicode="&#x2014;" horiz-adv-x="1705" 
d="M27 651v131h1652v-131h-1652z" />
    <glyph glyph-name="quoteleft" unicode="&#x2018;" horiz-adv-x="327" 
d="M82 1055v184l78 195h67l-51 -181h60v-198h-154z" />
    <glyph glyph-name="quoteright" unicode="&#x2019;" horiz-adv-x="327" 
d="M92 1235v199h154v-183l-80 -196h-66l52 180h-60z" />
    <glyph glyph-name="quotesinglbase" unicode="&#x201a;" horiz-adv-x="327" 
d="M92 0v199h154v-185l-80 -194h-66l52 180h-60z" />
    <glyph glyph-name="quotedblleft" unicode="&#x201c;" horiz-adv-x="555" 
d="M82 1055v184l78 195h67l-51 -181h60v-198h-154zM311 1055v184l78 195h66l-49 -181h57v-198h-152z" />
    <glyph glyph-name="quotedblright" unicode="&#x201d;" horiz-adv-x="555" 
d="M82 1235v199h151v-185l-77 -194h-66l49 180h-57zM309 1235v199h154v-185l-78 -194h-68l52 180h-60z" />
    <glyph glyph-name="quotedblbase" unicode="&#x201e;" horiz-adv-x="561" 
d="M92 0v199h154v-185l-80 -194h-66l52 180h-60zM326 0v199h153v-185l-78 -194h-67l51 180h-59z" />
    <glyph glyph-name="bullet" unicode="&#x2022;" horiz-adv-x="671" 
d="M121 717c0 59.333 21 110 63 152s92.667 63 152 63s110 -21 152 -63s63 -92.667 63 -152s-21 -110 -63 -152s-92.667 -63 -152 -63s-110 21 -152 63s-63 92.667 -63 152z" />
    <glyph glyph-name="ellipsis" unicode="&#x2026;" horiz-adv-x="776" 
d="M82 0v199h154v-199h-154zM311 0v199h154v-199h-154zM541 0v199h153v-199h-153z" />
    <glyph glyph-name="uni202F" unicode="&#x202f;" horiz-adv-x="363" 
 />
    <glyph glyph-name="guilsinglleft" unicode="&#x2039;" horiz-adv-x="374" 
d="M49 719l127 526h152l-127 -526l127 -549h-152z" />
    <glyph glyph-name="guilsinglright" unicode="&#x203a;" horiz-adv-x="374" 
d="M49 172l125 547l-125 526h150l129 -526l-129 -547h-150z" />
    <glyph glyph-name="uni205F" unicode="&#x205f;" horiz-adv-x="454" 
 />
    <glyph glyph-name="Euro" unicode="&#x20ac;" horiz-adv-x="813" 
d="M27 567v84h90v142h-90v81h90v213c0 112.667 26 201 78 265s131 96 237 96s185.167 -32 237.5 -96s78.5 -152.333 78.5 -265v-92h-150v101c0 138 -54 207 -162 207s-162 -69 -162 -207v-222h357v-81h-357v-142h357v-84h-357v-229c0 -138 54 -207 162 -207s162 69 162 207
v111h150v-103c0 -112 -26.167 -200 -78.5 -264s-131.5 -96 -237.5 -96s-185 32 -237 96s-78 152 -78 264v221h-90z" />
    <glyph glyph-name="trademark" unicode="&#x2122;" horiz-adv-x="1193" 
d="M25 1339v95h436v-95h-166v-634h-102v634h-168zM553 705v729h143l150 -570l143 570h144v-729h-99v575l-141 -571h-98l-150 567v-571h-92z" />
    <glyph glyph-name="uni25FC" unicode="&#x25fc;" horiz-adv-x="1433" 
d="M0 0v1434h1434v-1434h-1434z" />
    </font>
</defs>
</svg>
